<mxfile host="app.diagrams.net" modified="2024-04-02T11:06:52.590Z" agent="Mozilla/5.0 (X11; Linux x86_64) AppleWebKit/537.36 (KHTML, like Gecko) Chrome/122.0.0.0 Safari/537.36" version="24.0.7" etag="lIgLSyoSaMShvlP9qJ1B" type="github">
  <diagram name="第 1 页" id="01agbYeh8jdvlxJhbr0P">
    <mxGraphModel>
      <root>
        <mxCell id="0" />
        <mxCell id="1" parent="0" />
      </root>
    </mxGraphModel>
  </diagram>
</mxfile>
